<?xml version="1.0" encoding="UTF-8"?>
<svg version="1.1" xmlns="http://www.w3.org/2000/svg" width="1300" height="1300">
<path d="M0 0 C127.05 0 254.1 0 385 0 C385 19.14 385 38.28 385 58 C383.515 59.485 383.515 59.485 382 61 C381.34 61 380.68 61 380 61 C379.67 61.99 379.34 62.98 379 64 C378.34 64 377.68 64 377 64 C376.67 64.99 376.34 65.98 376 67 C374.46875 68.54296875 374.46875 68.54296875 372.5 70.1875 C368.53968292 73.53303861 364.70154669 76.99004337 360.8828125 80.49609375 C359 82 359 82 357 82 C356.67 82.99 356.34 83.98 356 85 C355.34 85 354.68 85 354 85 C353.67 85.99 353.34 86.98 353 88 C351.2578125 89.7890625 351.2578125 89.7890625 349.125 91.625 C348.42632813 92.23601562 347.72765625 92.84703125 347.0078125 93.4765625 C345 95 345 95 342 96 C341.67 96.99 341.34 97.98 341 99 C340.34 99 339.68 99 339 99 C339 99.66 339 100.32 339 101 C337.671875 102.33984375 337.671875 102.33984375 335.75 103.9375 C332.20420446 106.95360728 328.74022044 110.03745678 325.3125 113.1875 C324.80847656 113.65051514 324.30445313 114.11353027 323.78515625 114.59057617 C321.05859033 117.09773874 318.33831915 119.61162615 315.62109375 122.12890625 C314.49747684 123.16935832 313.37377957 124.20972361 312.25 125.25 C311.70174561 125.75772949 311.15349121 126.26545898 310.58862305 126.78857422 C307.64023081 129.51147227 304.66385747 132.19016546 301.625 134.8125 C298.55819843 137.46226788 295.70948872 140.26729374 292.87207031 143.15917969 C291.07280288 144.9284124 289.21926562 146.5797246 287.3046875 148.22265625 C282.20449128 152.65449419 277.33917193 157.32430906 272.47265625 162.00976562 C271.45365234 162.9775293 271.45365234 162.9775293 270.4140625 163.96484375 C269.8051416 164.5487085 269.1962207 165.13257324 268.56884766 165.73413086 C267 167 267 167 265 167 C264.67 167.99 264.34 168.98 264 170 C262.57421875 171.4375 262.57421875 171.4375 260.6875 173 C258.02573966 175.24631317 255.41475924 177.52388142 252.87109375 179.90234375 C252.33460205 180.40314453 251.79811035 180.90394531 251.24536133 181.41992188 C250.17295985 182.42429849 249.10372791 183.43207103 248.0378418 184.44335938 C244.22067103 188 244.22067103 188 242 188 C241.67 188.99 241.34 189.98 241 191 C239.29296875 192.68359375 239.29296875 192.68359375 237.1875 194.4375 C234.88734132 196.37967334 232.72884408 198.2782916 230.625 200.4375 C229 202 229 202 227 202 C227 202.66 227 203.32 227 204 C225.671875 205.33984375 225.671875 205.33984375 223.75 206.9375 C220.20420446 209.95360728 216.74022044 213.03745678 213.3125 216.1875 C212.80847656 216.65051514 212.30445313 217.11353027 211.78515625 217.59057617 C209.05859033 220.09773874 206.33831915 222.61162615 203.62109375 225.12890625 C202.49747684 226.16935832 201.37377957 227.20972361 200.25 228.25 C199.70174561 228.75772949 199.15349121 229.26545898 198.58862305 229.78857422 C195.64023081 232.51147227 192.66385747 235.19016546 189.625 237.8125 C186.55819843 240.46226788 183.70948872 243.26729374 180.87207031 246.15917969 C179.07280288 247.9284124 177.21926562 249.5797246 175.3046875 251.22265625 C170.20449128 255.65449419 165.33917193 260.32430906 160.47265625 265.00976562 C159.79332031 265.65494141 159.11398437 266.30011719 158.4140625 266.96484375 C157.50068115 267.84064087 157.50068115 267.84064087 156.56884766 268.73413086 C155 270 155 270 153 270 C152.67 270.99 152.34 271.98 152 273 C150.57421875 274.4375 150.57421875 274.4375 148.6875 276 C146.02573966 278.24631317 143.41475924 280.52388142 140.87109375 282.90234375 C140.33460205 283.40314453 139.79811035 283.90394531 139.24536133 284.41992188 C138.17295985 285.42429849 137.10372791 286.43207103 136.0378418 287.44335938 C132.22067103 291 132.22067103 291 130 291 C129.67 291.99 129.34 292.98 129 294 C127.29296875 295.68359375 127.29296875 295.68359375 125.1875 297.4375 C122.88734132 299.37967334 120.72884408 301.2782916 118.625 303.4375 C117 305 117 305 115 305 C114.67 305.99 114.34 306.98 114 308 C111.36 310.31 108.72 312.62 106 315 C199.06 315.33 292.12 315.66 388 316 C388 335.14 388 354.28 388 374 C259.96 374 131.92 374 0 374 C0 354.86 0 335.72 0 316 C0.99 315.01 1.98 314.02 3 313 C3.66 313 4.32 313 5 313 C5.33 312.01 5.66 311.02 6 310 C6.66 310 7.32 310 8 310 C8 309.34 8 308.68 8 308 C9.79296875 306.44921875 9.79296875 306.44921875 12.1875 304.6875 C15.78353108 302.03371255 18.86814872 299.18794413 22 296 C24.20746662 293.87233366 26.4447442 291.77786017 28.6875 289.6875 C29.26822266 289.13771484 29.84894531 288.58792969 30.44726562 288.02148438 C34.76848797 284 34.76848797 284 37 284 C37.33 283.01 37.66 282.02 38 281 C39.49609375 279.4921875 39.49609375 279.4921875 41.4375 277.875 C44.58070225 275.20634871 47.68723456 272.51094203 50.75 269.75 C51.58015625 269.00363281 52.4103125 268.25726562 53.265625 267.48828125 C55.26894568 265.66525943 57.25684739 263.83103675 59.234375 261.98046875 C59.77739258 261.47483398 60.32041016 260.96919922 60.87988281 260.44824219 C61.94567246 259.45440458 63.00764576 258.45645576 64.06542969 257.45410156 C67.77667267 254 67.77667267 254 70 254 C70.33 253.01 70.66 252.02 71 251 C72.55859375 249.39453125 72.55859375 249.39453125 74.4375 247.8125 C75.05496094 247.28269531 75.67242188 246.75289062 76.30859375 246.20703125 C78 245 78 245 80 245 C80 244.34 80 243.68 80 243 C84.47058824 239 84.47058824 239 87 239 C87.33 238.01 87.66 237.02 88 236 C88.66 236 89.32 236 90 236 C90 235.34 90 234.68 90 234 C91.609375 232.34375 91.609375 232.34375 93.75 230.5 C94.44609375 229.8915625 95.1421875 229.283125 95.859375 228.65625 C97.84460792 227.12023037 99.71872045 226.0276034 102 225 C102 224.34 102 223.68 102 223 C103.6796875 221.2734375 103.6796875 221.2734375 105.875 219.375 C106.59429688 218.74335937 107.31359375 218.11171875 108.0546875 217.4609375 C110 216 110 216 112 216 C112 215.34 112 214.68 112 214 C113.3984375 212.58984375 113.3984375 212.58984375 115.375 210.9375 C119.65834459 207.31195476 123.78372133 203.53800452 127.8984375 199.72265625 C130 198 130 198 132 198 C132.33 197.01 132.66 196.02 133 195 C134.49609375 193.4921875 134.49609375 193.4921875 136.4375 191.875 C139.6037058 189.18766875 142.7294176 186.47015424 145.8125 183.6875 C146.64394531 182.93984375 147.47539063 182.1921875 148.33203125 181.421875 C150.23656611 179.69301466 152.12887372 177.95522527 154.01171875 176.203125 C154.75941528 175.51150269 154.75941528 175.51150269 155.5222168 174.8059082 C156.93479621 173.49787787 158.34251941 172.18460901 159.75 170.87109375 C162 169 162 169 164 169 C164.33 168.01 164.66 167.02 165 166 C166.49609375 164.4921875 166.49609375 164.4921875 168.4375 162.875 C171.6037058 160.18766875 174.7294176 157.47015424 177.8125 154.6875 C179.07126953 153.55248047 179.07126953 153.55248047 180.35546875 152.39453125 C183.11728449 149.89380296 185.87144049 147.38481427 188.625 144.875 C194.05557668 139.93463052 199.50911375 135.03012375 205.1875 130.375 C207.95311473 128.039592 210.44303298 125.56069438 213 123 C214.88322054 121.21575924 216.77915536 119.44484329 218.6875 117.6875 C219.64011719 116.80449219 220.59273437 115.92148437 221.57421875 115.01171875 C224 113 224 113 226 113 C226.33 112.01 226.66 111.02 227 110 C227.66 110 228.32 110 229 110 C229 109.34 229 108.68 229 108 C230.69903023 106.48259024 232.46072723 105.034872 234.25 103.625 C237.05313312 101.40770687 239.73701197 99.2694248 242.234375 96.7109375 C244 95 244 95 246 95 C246.33 94.01 246.66 93.02 247 92 C247.66 92 248.32 92 249 92 C249 91.34 249 90.68 249 90 C250.79296875 88.44921875 250.79296875 88.44921875 253.1875 86.6875 C256.74982135 83.9976973 259.88119491 81.2008789 263 78 C264.15806915 76.99005597 265.32536387 75.99062661 266.5 75 C268.55364995 73.26365219 270.46943501 71.53056499 272.375 69.625 C276.08707676 65.91292324 280.07634824 62.48769045 284 59 C190.28 58.67 96.56 58.34 0 58 C0 38.86 0 19.72 0 0 Z " fill="#4270E4" transform="translate(456,463)"/>
<path d="M0 0 C4.51861404 3.57874232 8.81796242 7.27947923 12.9296875 11.3203125 C13.61546875 11.99320313 14.30125 12.66609375 15.0078125 13.359375 C25.4779377 24.36537275 31.79787346 37.84507492 35.9296875 52.3203125 C36.12401367 52.97273926 36.31833984 53.62516602 36.51855469 54.29736328 C38.43011335 61.57389364 38.32569242 68.96734026 38.3046875 76.4453125 C38.30447601 77.13695496 38.30426453 77.82859741 38.30404663 78.54119873 C38.27285012 88.73846682 37.65523992 97.724564 33.9296875 107.3203125 C33.5790625 108.40183594 33.2284375 109.48335937 32.8671875 110.59765625 C25.07668402 133.34700842 7.01150445 151.26306611 -13.8828125 162.4453125 C-36.99207503 173.38684088 -64.32632106 174.86047051 -88.5703125 166.6953125 C-113.03009835 157.93278382 -131.96561762 139.02142175 -143.015625 115.81640625 C-145.01464706 111.08538737 -146.66860946 106.25993851 -148.0703125 101.3203125 C-148.24981445 100.71219727 -148.42931641 100.10408203 -148.61425781 99.47753906 C-150.53657225 92.14248238 -150.46648749 84.73383352 -150.4453125 77.1953125 C-150.44499527 76.15784882 -150.44499527 76.15784882 -150.44467163 75.09942627 C-150.41347512 64.90215818 -149.79586492 55.916061 -146.0703125 46.3203125 C-145.7196875 45.23878906 -145.3690625 44.15726563 -145.0078125 43.04296875 C-137.64139968 21.53202019 -120.25542596 2.55541947 -100.0703125 -7.6796875 C-67.50142202 -22.93202001 -29.46861729 -21.67890798 0 0 Z " fill="#4270E4" transform="translate(706.0703125,918.6796875)"/>
<path d="M0 0 C14.89997117 13.10420917 24.95905403 28.94089265 30.3984375 48.109375 C30.57793945 48.71749023 30.75744141 49.32560547 30.94238281 49.95214844 C32.86469725 57.28720512 32.79461249 64.69585398 32.7734375 72.234375 C32.77322601 72.92601746 32.77301453 73.61765991 32.77279663 74.33026123 C32.74160012 84.52752932 32.12398992 93.5136265 28.3984375 103.109375 C28.0478125 104.19089844 27.6971875 105.27242188 27.3359375 106.38671875 C19.96952468 127.89766731 2.58355096 146.87426803 -17.6015625 157.109375 C-42.13282026 168.59760487 -67.73318177 170.60835221 -93.6015625 162.109375 C-98.1275074 160.47006502 -102.38300004 158.42602939 -106.6015625 156.109375 C-107.91640625 155.39974609 -107.91640625 155.39974609 -109.2578125 154.67578125 C-122.57929933 147.08993458 -133.27940246 136.91723833 -141.6015625 124.109375 C-142.11589844 123.36300781 -142.63023437 122.61664063 -143.16015625 121.84765625 C-148.12166807 114.25718752 -151.02919126 105.75844945 -153.6015625 97.109375 C-153.80023926 96.44969727 -153.99891602 95.79001953 -154.20361328 95.11035156 C-156.10950317 87.84446572 -155.99753387 80.45040426 -155.9765625 72.984375 C-155.97624527 71.94691132 -155.97624527 71.94691132 -155.97592163 70.88848877 C-155.94472512 60.69122068 -155.32711492 51.7051235 -151.6015625 42.109375 C-151.2509375 41.02785156 -150.9003125 39.94632812 -150.5390625 38.83203125 C-142.74855902 16.08267908 -124.68337945 -1.83337861 -103.7890625 -13.015625 C-69.39694708 -29.29923883 -29.0793704 -24.27986266 0 0 Z " fill="#4270E4" transform="translate(711.6015625,231.890625)"/>
</svg>
